<?xml version="1.0" encoding="utf-8"?>
<!-- Generator: Adobe Illustrator 20.1.0, SVG Export Plug-In . SVG Version: 6.00 Build 0)  -->
<svg version="1.1" id="Layer_1" xmlns="http://www.w3.org/2000/svg" xmlns:xlink="http://www.w3.org/1999/xlink" x="0px" y="0px"
	 viewBox="0 0 400 225" style="enable-background:new 0 0 400 225;" xml:space="preserve">
<style type="text/css">
	.st0{fill:#66BF84;}
	.st1{fill:#EF5F5F;}
	.st2{fill:#3E6183;}
	.st3{fill:#62A6EF;}
	.st4{fill:#FFFFFF;}
</style>
<title>memmory game</title>
<g>
	<path class="st0" d="M192.5,159.5h-9.3c-2.7,0-4.7-1.2-5.8-2.1c-1.8-1.3-2.7-3.1-3.1-4l-0.9-1.8l-0.1-4.8
		c-7.4,1.8-12.9,8.4-12.9,16.4c0,9.3,7.5,16.8,16.8,16.8c9.3,0,16.8-7.5,16.8-16.8c0-1.4-0.2-2.7-0.5-3.9c-0.1,0-0.3,0.1-0.4,0.1
		L192.5,159.5z"/>
	<path class="st1" d="M226.6,153.5c-0.4,0.9-1.3,2.7-3.1,4c-1.1,0.9-3.1,2.1-5.8,2.1h-9.3l-0.6-0.1c-0.4-0.1-0.8-0.2-1.2-0.3
		c-0.3,1.3-0.5,2.7-0.5,4.1c0,9.3,7.5,16.8,16.8,16.8c9.3,0,16.8-7.5,16.8-16.8c0-7.7-5.1-14.1-12.1-16.2l-0.1,4.5L226.6,153.5z"/>
	<path class="st2" d="M157.9,136.5c0.1,0,0.2,0,0.2,0S157.9,136.5,157.9,136.5z"/>
	<path class="st2" d="M254.2,136.5c0.1,0,0.2,0,0.2,0S254.2,136.5,254.2,136.5z"/>
	<g>
		<path class="st2" d="M217.7,140c-0.7,0.7-2.7,2.9-2.7,2.9l-10.1-9.2c-0.2-0.2-0.7-0.4-1.1-0.4h-5.3h-1.5c-0.4,0-0.9,0.2-1.1,0.4
			l-10.1,9.2c0,0-2-2.2-2.7-2.9c-1.3-1.3-2.5-1.1-2.9,0.2l0.2,6.5l0.1,3.1c0.4,0.9,0.7,1.6,1.1,1.8c0.2,0.2,0.9,0.7,1.6,0.7h6.8h2
			c1.3-0.2,1.6-1.6,0.7-2.2l-3.4-3.4l8.5-7.8c0.2-0.2,4.5-0.1,5.3-0.1c0-0.1,0.2,0,0.2,0s-0.1,0-0.2,0c0,0,0,0,0.1,0.1l8.5,7.8
			l-3.4,3.4c-0.9,0.7-0.7,2,0.7,2.2h1.1h7.6c0.7,0,1.3-0.4,1.6-0.7c0.4-0.2,0.7-0.9,1.1-1.8l0.1-3.3l0.1-6.3
			C220.1,138.9,219,138.7,217.7,140z"/>
	</g>
	<g>
		<path class="st3" d="M167.7,104.4l-0.6,0.1h-9.3c-2.7,0-4.7-1.2-5.8-2.1c-1.8-1.3-2.7-3.1-3.1-4l-0.9-1.8l0-1.8
			c-4.8,3-7.9,8.3-7.9,14.3c0,6.7,3.9,12.4,9.5,15.1c2.2,1.1,4.7,1.7,7.3,1.7c2.1,0,4.1-0.4,5.9-1.1c6.4-2.4,10.9-8.5,10.9-15.8
			c0-2.5-0.5-4.8-1.5-6.9C170.9,103.3,169.4,104.1,167.7,104.4z"/>
		<path class="st3" d="M210,103.7c-1.9,1.9-4.3,2.8-6.7,2.8c-2.3,0-4.7-0.9-6.5-2.7l-6.8-6.4c-2.9,3-4.7,7.1-4.7,11.6
			c0,9.3,7.5,16.8,16.8,16.8c9.3,0,16.8-7.5,16.8-16.8c0-4-1.4-7.7-3.8-10.6L210,103.7z"/>
		<path class="st3" d="M258.1,94.9l0,1.7l-0.9,1.8c-0.4,0.9-1.3,2.7-3.1,4c-1.1,0.9-3.1,2.1-5.8,2.1h-9.3l-0.6-0.1
			c-1.8-0.3-3.3-1.1-4.6-2.2c-1,2.1-1.5,4.5-1.5,7c0,7.4,4.8,13.7,11.5,16c1.7,0.6,3.5,0.9,5.3,0.9c2.8,0,5.4-0.7,7.7-1.9
			c5.4-2.8,9.1-8.4,9.1-15C265.9,103.1,262.8,97.9,258.1,94.9z"/>
	</g>
	<path class="st2" d="M248.2,85c-0.7,0.7-2.7,2.9-2.7,2.9l-10.1-9.2c-0.2-0.2-0.7-0.4-1.1-0.4h-30.6h-1.6h-30.6
		c-0.4,0-0.9,0.2-1.1,0.4l-10.1,9.2c0,0-2-2.2-2.7-2.9c-1.3-1.3-2.5-1.1-2.9,0.2l0.2,7.1l0.1,2.5c0.4,0.9,0.7,1.6,1.1,1.8
		c0.2,0.2,0.9,0.7,1.6,0.7h8.7c0.7-0.1,1.1-0.6,1.2-1c0.1-0.4-0.1-0.9-0.5-1.2l-3.4-3.4l8.5-7.8c0.2-0.2,0.9-0.4,1.3-0.4l27-0.2v6.7
		c-1.1,0-3.1,0-3.8,0c-1.8,0-2.7,0.9-2,2.2l1.3,1.2l5.6,5.2c0.9,0.9,2.2,0.9,3.1,0l4.6-4.6l1.8-1.8c0.7-0.9-0.2-2-1.3-2h-4.5v-6.9
		l26.8,0.2c0.4,0,1.1,0.2,1.3,0.4l8.5,7.8l-3.4,3.4c-0.4,0.3-0.6,0.7-0.5,1.1c0,0.5,0.4,1,1.2,1.1h8.7c0.7,0,1.3-0.4,1.6-0.7
		c0.4-0.2,0.7-0.9,1.1-1.8l0.1-2.5l0.2-7.2C250.7,83.9,249.6,83.7,248.2,85z"/>
	<path class="st3" d="M202.5,38.5c-9.3,0-16.8,7.5-16.8,16.8c0,7.3,4.7,13.5,11.2,15.8c1.7,0.6,3.6,1,5.5,1c1.9,0,3.8-0.3,5.5-1
		c6.5-2.3,11.2-8.5,11.2-15.8C219.3,46,211.8,38.5,202.5,38.5z M199.9,61.8c0-1.6,1.1-2.7,2.7-2.7c1.6,0,2.7,1.1,2.7,2.7
		c0,1.6-1.1,2.7-2.7,2.7C201,64.6,199.9,63.5,199.9,61.8z M204.9,57.7h-4.4c0-3.9,2.9-4.4,2.9-6.4c0-0.8-0.4-1.1-1.2-1.1
		c-1,0-1.4,0.7-1.4,2.1h-4.6c0-4.3,2.4-6.8,6.5-6.8c3.8,0,6.1,1.8,6.1,4.8C208.9,54.2,204.9,54.9,204.9,57.7z"/>
	<path class="st4" d="M202.3,50.2c0.8,0,1.2,0.3,1.2,1.1c0,2-2.9,2.5-2.9,6.4h4.4c0-2.8,4-3.6,4-7.4c0-3-2.3-4.8-6.1-4.8
		c-4.1,0-6.5,2.5-6.5,6.8h4.6C200.8,50.9,201.3,50.2,202.3,50.2z"/>
	<path class="st4" d="M202.6,59.1c-1.6,0-2.7,1.1-2.7,2.7c0,1.6,1.1,2.7,2.7,2.7c1.6,0,2.7-1.1,2.7-2.7
		C205.4,60.2,204.3,59.1,202.6,59.1z"/>
</g>
</svg>
